Coordinates
version=1
nRows=15
nColumns=34
inDegrees=yes

Units are S.I. units (second, meters, Newtons, ...)
Angles are in degrees.

endheader
time	pelvis_tilt	pelvis_list	pelvis_rotation	pelvis_tx	pelvis_ty	pelvis_tz	hip_flexion_r	hip_adduction_r	hip_rotation_r	knee_angle_r	ankle_angle_r	subtalar_angle_r	mtp_angle_r	hip_flexion_l	hip_adduction_l	hip_rotation_l	knee_angle_l	socket_flexion	socket_adduction	socket_rotation	socket_tx	socket_ty	socket_tz	pros_ankle_rx	pros_ankle_ry	pros_ankle_rz	pros_ankle_tx	pros_ankle_ty	pros_ankle_tz	foot_flex	lumbar_extension	lumbar_bending	lumbar_rotation
      0.90416667	      0.68630395	     -6.65021169	      2.79333766	      0.46478035	      1.04566558	      0.36265048	     10.41863802	      9.90029021	     -9.15683145	    -21.24915501	      8.70735690	     15.14162489	     14.53138390	     16.97746738	    -11.76287888	     -3.08141818	    -37.62775027	     27.62581534	     -2.40256492	     -5.25839740	      0.11284289	      0.02008044	      0.01054976	      0.00000000	      0.00000000	      0.00000000	      0.00000000	      0.00000000	      0.00000000	     -1.47081622	    -19.92177621	      2.66771397	     -0.54346101
      0.90833333	      0.66159456	     -6.54872609	      2.68107463	      0.46970249	      1.04674186	      0.36289797	     10.02127145	      9.81445769	     -9.11905531	    -21.06129747	      8.76409340	     15.23318110	     14.58568674	     17.43497504	    -11.62752984	     -2.94304620	    -37.40275125	     27.40988463	     -2.17087008	     -5.01547521	      0.11222781	      0.01965703	      0.00955715	      0.00000000	      0.00000000	      0.00000000	      0.00000000	      0.00000000	      0.00000000	     -1.47200815	    -19.95291096	      2.55572319	     -0.51631399
      0.91250000	      0.72877984	     -6.54869370	      2.68281800	      0.47485618	      1.04799262	      0.36296834	      9.40312922	      9.82163144	     -9.25921715	    -20.59743062	      8.50059480	     15.66066428	     15.11348379	     17.80898838	    -11.58816881	     -2.75980263	    -37.25395735	     27.06802482	     -1.96939116	     -4.69761272	      0.11130614	      0.01904352	      0.00861377	      0.00000000	      0.00000000	      0.00000000	      0.00000000	      0.00000000	      0.00000000	     -1.47931654	    -19.95023011	      2.46726925	     -0.41799821
      0.91666667	      0.68814233	     -6.44740568	      2.57541525	      0.47973120	      1.04906077	      0.36318311	      9.03813075	      9.73303102	     -9.19612745	    -20.43690483	      8.54258915	     15.73293863	     15.15459351	     18.24755374	    -11.43093610	     -2.62268554	    -36.97754874	     26.80660574	     -1.76176122	     -4.44558832	      0.11044817	      0.01853550	      0.00769268	      0.00000000	      0.00000000	      0.00000000	      0.00000000	      0.00000000	      0.00000000	     -1.47853835	    -19.98616742	      2.39104150	     -0.37851297
      0.92083333	      0.66575994	     -6.39264909	      2.52110610	      0.48470360	      1.05018273	      0.36340862	      8.55669590	      9.72042670	     -9.13397297	    -20.07089990	      8.50235517	     15.90804257	     15.23042212	     18.69418419	    -11.29671189	     -2.44429991	    -36.70161829	     26.52520372	     -1.58378493	     -4.17860986	      0.10962028	      0.01817692	      0.00707178	      0.00000000	      0.00000000	      0.00000000	      0.00000000	      0.00000000	      0.00000000	     -1.49758674	    -19.90690955	      2.16196724	     -0.29547756
      0.92500000	      0.61690496	     -6.31061857	      2.40337069	      0.48959593	      1.05121647	      0.36359718	      8.17904323	      9.64212375	     -9.10054031	    -19.85456793	      8.45983244	     16.01483587	     15.27013985	     19.11760201	    -11.16786478	     -2.34015674	    -36.38359270	     26.22257294	     -1.39504900	     -3.95024023	      0.10865539	      0.01767311	      0.00616009	      0.00000000	      0.00000000	      0.00000000	      0.00000000	      0.00000000	      0.00000000	     -1.48814138	    -19.92627847	      2.12039566	     -0.22651542
      0.92916667	      0.61090677	     -6.29745157	      2.34662266	      0.49464447	      1.05237124	      0.36375918	      7.64075886	      9.66640179	     -9.04792801	    -19.39803440	      8.26269517	     16.27132865	     15.36751437	     19.51310996	    -11.07765615	     -2.19238981	    -36.06289827	     25.88901786	     -1.24308292	     -3.68746236	      0.10774084	      0.01728030	      0.00559195	      0.00000000	      0.00000000	      0.00000000	      0.00000000	      0.00000000	      0.00000000	     -1.50729188	    -19.78739719	      1.92493415	     -0.07920480
      0.93333333	      0.56414635	     -6.24588381	      2.20167106	      0.49946442	      1.05334259	      0.36395126	      7.29855077	      9.60883628	     -9.02605815	    -19.25505933	      8.21262735	     16.35568505	     15.40222276	     19.91072494	    -10.96110754	     -2.10734677	    -35.70546132	     25.55083162	     -1.08663075	     -3.48721490	      0.10673086	      0.01674666	      0.00499757	      0.00000000	      0.00000000	      0.00000000	      0.00000000	      0.00000000	      0.00000000	     -1.48356668	    -19.83788468	      1.92316222	     -0.01458833
      0.93750000	      0.56522960	     -6.23705331	      2.14766972	      0.50465084	      1.05456487	      0.36415639	      6.67832378	      9.65283722	     -8.94190442	    -18.65367475	      7.88363773	     16.69460231	     15.55386452	     20.22721325	    -10.90619193	     -1.99999639	    -35.32966096	     25.15286012	     -0.93487807	     -3.21289329	      0.10549376	      0.01619672	      0.00420645	      0.00000000	      0.00000000	      0.00000000	      0.00000000	      0.00000000	      0.00000000	     -1.50657232	    -19.65369101	      1.73291722	      0.21144650
      0.94166667	      0.50999160	     -6.19619757	      1.98886941	      0.50938357	      1.05548192	      0.36433003	      6.36356804	      9.60009383	     -8.91731634	    -18.53342842	      7.84081419	     16.76509792	     15.59580730	     20.61145800	    -10.78918476	     -1.91768637	    -34.93251761	     24.77527334	     -0.79490789	     -3.01349872	      0.10443196	      0.01568111	      0.00369043	      0.00000000	      0.00000000	      0.00000000	      0.00000000	      0.00000000	      0.00000000	     -1.47807398	    -19.74094064	      1.74363218	      0.27648936
      0.94583333	      0.43606546	     -6.15013954	      1.88265446	      0.51428553	      1.05643868	      0.36454572	      5.97838847	      9.57017242	     -8.85108698	    -18.24053048	      7.76888858	     16.90837065	     15.64830734	     20.99840303	    -10.67502091	     -1.81257199	    -34.51047249	     24.37093359	     -0.65556373	     -2.78729863	      0.10322261	      0.01520746	      0.00305830	      0.00000000	      0.00000000	      0.00000000	      0.00000000	      0.00000000	      0.00000000	     -1.47939672	    -19.75170047	      1.66171490	      0.37890071
      0.95000000	      0.37853723	     -6.12362098	      1.76829288	      0.51920066	      1.05742944	      0.36473242	      5.54714906	      9.56261478	     -8.77335568	    -17.88315431	      7.64169578	     17.09214948	     15.70845371	     21.34935943	    -10.56851981	     -1.72059298	    -34.06965601	     23.94556279	     -0.53839862	     -2.58836080	      0.10194522	      0.01472034	      0.00259160	      0.00000000	      0.00000000	      0.00000000	      0.00000000	      0.00000000	      0.00000000	     -1.47696353	    -19.69186458	      1.55969209	      0.50983955
      0.95416667	      0.33065623	     -6.10686518	      1.64194134	      0.52414462	      1.05841839	      0.36491623	      5.09712098	      9.56258534	     -8.68516705	    -17.50881775	      7.45659639	     17.29707190	     15.77956680	     21.65430613	    -10.47714623	     -1.64911250	    -33.60156503	     23.49152967	     -0.43936267	     -2.40957394	      0.10054914	      0.01414425	      0.00215927	      0.00000000	      0.00000000	      0.00000000	      0.00000000	      0.00000000	      0.00000000	     -1.46453406	    -19.60427515	      1.47206727	      0.66615043
      0.95833333	      0.74435747	     -6.05424446	      1.39653293	      0.52937736	      1.06033600	      0.36543752	      3.95746576	      9.57205907	     -8.42974043	    -16.72728897	      6.42317223	     17.42584079	     19.04878103	     21.10902823	    -10.50491544	     -1.80228902	    -33.47008315	     22.34590182	     -0.24069592	     -2.24600966	      0.09619827	      0.01143490	      0.00092459	      0.00000000	      0.00000000	      0.00000000	      0.00000000	      0.00000000	      0.00000000	     -1.42882288	    -19.89468979	      1.24531984	      1.20451320
      0.96250000	      0.66843926	     -6.02521967	      1.26118616	      0.53415489	      1.06116070	      0.36559249	      3.60502469	      9.54242221	     -8.36037126	    -16.48234579	      6.38163482	     17.55981076	     19.04293978	     21.48276257	    -10.37533967	     -1.71288424	    -33.00688476	     21.88627850	     -0.17134858	     -2.11426274	      0.09497773	      0.01121844	      0.00075874	      0.00000000	      0.00000000	      0.00000000	      0.00000000	      0.00000000	      0.00000000	     -1.43170676	    -19.83363576	      1.18373480	      1.27885719
